<svg enable-background="new 0 0 30 30" viewBox="0 0 30 30" xmlns="http://www.w3.org/2000/svg"><g fill="none" fill-rule="evenodd"><path d="M13.547 25.25l.7-.702 1.496 1.495L16.29 24l.958.257L16.7 26.3l2.044-.548.256.957-2.043.545 1.496 1.495-.7.702-1.497-1.495L15.71 30l-.958-.257.548-2.042-2.044.55-.256-.96 2.043-.546-1.496-1.495z" fill="#006ED4"/><path d="M6.5 22c-1.8 0-3.3-1.6-3.3-3.4 0-1.8 1.5-3.3 3.3-3.3h.2c.6-1.9 2.2-3.2 4.2-3.2.1 0 .2 0 .4.1.9-2.6 3.4-4.6 6.3-4.6 3.3 0 6.1 2.4 6.6 5.6.5-.1.9-.2 1.3-.2 2.5 0 4.5 2 4.5 4.5S28 22 25.5 22h-19zm17.73-7c-.767.343-.96.367-1.16.267-.2-.1-.215-.267-.4-1.067-.452-2.934-2.27-4.8-4.97-4.8-2.6 0-4.8 2.1-4.8 4.6 0 .4-.1.5-.5.2-.4-.2-.9-.4-1.4-.4-1.4 0-2.6 1.1-2.7 2.8 0 .4.1.8 0 .9-.1.1-.3-.1-.8-.3-.517-.2-.8-.2-1-.2-.8 0-1.5.7-1.5 1.5S5.7 20 6.5 20h19c1.4 0 2.6-1.2 2.6-2.6 0-1.4-1.1-2.6-2.6-2.6-.33 0-.882.027-1.27.2z" fill="#006ED4"/><path d="M16.453 6.368c-.212-.245-.435-.48-.683-.697l2.96-2.957.69.69-2.968 2.966zm-3.31 1.09c-1.995-1.15-4.546-.468-5.697 1.527-.632 1.093-.694 2.347-.31 3.452-.416.397-.77.857-1.043 1.37-.927-1.684-.982-3.793.048-5.58 1.57-2.714 5.04-3.643 7.755-2.076.398.23.752.506 1.07.81-.527.19-1.027.437-1.493.735-.108-.078-.208-.167-.327-.236zm-.804-3.45L13.37.155l.943.253-1.027 3.833c-.312-.103-.63-.176-.947-.235zM7.664.25l.94-.25 1.078 4.014c-.32.062-.634.145-.943.25L7.666.252zM2.715 3.4l.69-.69 2.927 2.93c-.244.21-.478.436-.694.684L2.715 3.402zm1.282 6.273L0 8.605l.253-.944 3.994 1.073c-.106.31-.186.626-.25.943zm.262 3.72L.252 14.466 0 13.526l4.006-1.075c.063.32.148.637.254.945z" fill="#FF6C00"/></g></svg>
