<svg enable-background="new 0 0 30 30" viewBox="0 0 30 30" xmlns="http://www.w3.org/2000/svg"><path d="M28.125 10.027l-2.63.71 1.925 1.936-.566.57-1.926-1.937-.704 2.645-.774-.206.705-2.646-2.63.71-.207-.778 2.63-.71-1.925-1.938.565-.568 1.926 1.937.705-2.644.77.21-.703 2.644 2.63-.71.207.777zm-8.912-.088l-1.8-1.81-.657 2.47-.723-.195.66-2.47-2.46.662-.192-.727 2.46-.66-1.8-1.81.53-.532 1.8 1.81.658-2.472.722.195-.66 2.47 2.46-.66.193.726-2.456.663 1.8 1.81-.53.53zm-5.23 4.94l.603-.16.075.28-.6.162.44.44-.205.207-.44-.44-.162.6-.282-.075.16-.602-.6.16-.075-.28.602-.162-.44-.44.206-.206.44.44.162-.6.282.074-.162.6zm-1.84-3.68l-.51.51-1.726-1.735-.632 2.373-.694-.188.635-2.373-2.36.635-.186-.698 2.36-.636L7.3 7.355l.508-.51L9.536 8.58l.632-2.373.694.187-.633 2.373 2.36-.636.184.7-2.36.636 1.728 1.737zm-4.15 2.643l.173.644-2.18.587 1.596 1.604-.47.47-1.595-1.603-.584 2.19-.64-.17.584-2.192-2.18.587-.17-.644 2.18-.587-1.596-1.604.47-.472 1.596 1.604.584-2.192.64.172-.585 2.19 2.18-.586zM3.506 19.53l.555-.554 1.187 1.186.433-1.62.758.204-.434 1.62 1.62-.435.202.76-1.62.433 1.186 1.185-.555.554-1.185-1.185-.434 1.618-.76-.203.435-1.62-1.62.435-.202-.76 1.62-.432-1.183-1.186zm4.096 4.03l.488-.49 1.043 1.045.38-1.424.668.18-.38 1.424 1.425-.382.18.668-1.425.382 1.04 1.042-.487.49L9.49 25.45l-.38 1.425-.668-.18.38-1.423-1.423.382-.18-.668 1.423-.38L7.6 23.562zm5.332.13l.437-.435.93.93.343-1.27.596.16-.34 1.27 1.27-.34.16.596-1.27.34.93.933-.436.437-.932-.93-.34 1.27-.596-.16.34-1.27-1.27.34-.16-.596 1.27-.34-.93-.932zm5.43-6.76l-.904.24.66.66-.31.31-.66-.66-.242.903-.423-.113.242-.902-.903.243-.113-.422.905-.242-.662-.66.31-.31.66.66.243-.903.423.114-.243.903.903-.243.113.423zm-2.17 4.146l1.094-.293-.8-.8.375-.377.8.8.294-1.093.513.137-.294 1.096 1.095-.294.14.513-1.095.293.8.8-.375.376-.802-.8-.293 1.094-.512-.137.293-1.093-1.095.293-.135-.513z" fill="#006ED4" fill-rule="evenodd"/></svg>
