<svg enable-background="new 0 0 30 30" viewBox="0 0 30 30" xmlns="http://www.w3.org/2000/svg"><g fill="none" fill-rule="evenodd"><path d="M20 16c-.1.6-.3 1.3-.7 1.8 0 .1-.1.1-.1.2h2.9c.3-.7.4-1.3.5-2H20zm-2.9-6s.1 0 .1.1c.8.5 1.5 1.1 2 1.9h2.9c-.3-.7-.6-1.4-1.1-2h-3.9zM10 22c.1.1.2.1.3.2 1.3.8 2.7 1.1 4.1 1.1 1.6 0 3.1-.5 4.4-1.3H10zm-.4-4c-.4-.6-.6-1.3-.8-2H6.2c.1.7.2 1.4.5 2h2.9zm10.1-5c.1.2.1.3.2.5.1.5.2 1 .2 1.5h2.6c0-.7-.1-1.3-.2-2h-2.8zm.4-4c-.5-.4-1-.8-1.6-1.2-.6-.4-1.3-.6-2-.8h-4.4c-1.3.4-2.5 1-3.5 2h11.5zm-11 4H6.4c-.2.7-.2 1.3-.2 2h2.6c-.1-.7 0-1.3.3-2zm9.4 6c-1.1 1.1-2.5 1.7-4.1 1.7-1 0-2-.3-2.8-.8-.5-.3-.9-.6-1.2-.9H7.1c.4.7.9 1.4 1.5 2H20c.6-.5 1.1-1.1 1.5-1.9 0 0 0-.1.1-.1h-3.1zm-8.9-7c.5-.9 1.3-1.5 2.1-2H7.8l-.6.9c-.2.3-.4.7-.5 1.1h2.9z" fill="#FF6C00"/><path d="M28.05 13.975v1h-27v-1h27zm-1.05-12v1H12v-1h15zm-2 3v1H6v-1h19zm1.05 3v1h-23v-1h23zm2 3v1h-26v-1h26zm0 6v1h-27v-1h27zm-2 3v1h-23v-1h23zm-2.05 3v1H4v-1h20zm-3.95 3v1h-18v-1h18z" fill="#006ED4"/></g></svg>
