<svg enable-background="new 0 0 30 30" viewBox="0 0 30 30" xmlns="http://www.w3.org/2000/svg"><g fill="none" fill-rule="evenodd"><path d="M17 9h2.1c-.8-.8-1.8-1.5-3-1.9-.7-.3-1.5-.4-2.2-.5C15.2 7.2 16.2 8 17 9zm.7 1c.4.6.6 1.3.8 2H21c-.3-.7-.6-1.4-1.1-2h-2.2zM9.4 22l1.2.6c2.3.8 4.8.5 6.7-.6H9.4zm9.2-9c.1.7 0 1.3-.1 2h3c0-.7-.1-1.4-.2-2h-2.7zm-.3 3c0 .1-.1.2-.1.3-.2.6-.5 1.2-.9 1.7h3.6c.1-.1.1-.3.2-.4.2-.5.3-1.1.4-1.6h-3.2zm-1.8 3c-.9.9-2.1 1.6-3.3 2h5.6c.6-.6 1.2-1.2 1.6-2h-3.9zm-8 1.9c-.5-.2-.9-.4-1.4-.6.3.2.6.5.9.7h1c-.2 0-.3-.1-.5-.1z" fill="#004381"/><path d="M28.05 13.975v1h-27v-1h27zm-1.05-12v1H12v-1h15zm-2 3v1H6v-1h19zm1.05 3v1h-23v-1h23zm2 3v1h-26v-1h26zm0 6v1h-27v-1h27zm-2 3v1h-23v-1h23zm-2.05 3v1H4v-1h20zm-3.95 3v1h-18v-1h18z" fill="#006ED4"/></g></svg>
