<svg enable-background="new 0 0 30 30" viewBox="0 0 30 30" xmlns="http://www.w3.org/2000/svg"><path d="M5.068 20.455l-.015-.006 3.09-2.698-.006 3.994h-.003c.02.3-.028.61-.17.904-.44.922-1.547 1.31-2.472.867-.924-.443-1.316-1.55-.875-2.47.112-.233.267-.433.45-.592zm6.87 3.773l-.016-.006 3.115-2.72-.005 4.028h-.002c.02.304-.03.617-.17.913-.445.928-1.56 1.318-2.494.872-.932-.446-1.328-1.56-.883-2.49.112-.236.27-.436.454-.597zm8.124-3.75l-.015-.006 3.116-2.72-.006 4.028h-.002c.02.304-.03.617-.17.913-.445.928-1.56 1.318-2.494.872-.93-.446-1.326-1.56-.88-2.49.11-.236.27-.436.453-.597zM4.612 16.97c-1.8 0-3.3-1.6-3.3-3.4 0-1.8 1.5-3.3 3.3-3.3h.2c.6-1.9 2.2-3.2 4.2-3.2.1 0 .2 0 .4.1.9-2.6 3.4-4.6 6.3-4.6 3.3 0 6.1 2.4 6.6 5.6.5-.1.9-.2 1.3-.2 2.5 0 4.5 2 4.5 4.5s-2 4.5-4.5 4.5h-19zm17.73-7c-.766.343-.958.368-1.158.268-.2-.1-.216-.267-.4-1.067-.454-2.932-2.27-4.8-4.97-4.8-2.6 0-4.802 2.1-4.802 4.6 0 .4-.1.5-.5.2-.4-.2-.9-.4-1.4-.4-1.4 0-2.6 1.1-2.7 2.8 0 .4.1.8 0 .9-.1.1-.3-.1-.8-.3-.517-.2-.8-.2-1-.2-.8 0-1.5.7-1.5 1.5s.7 1.5 1.5 1.5h19c1.4 0 2.6-1.2 2.6-2.6 0-1.4-1.1-2.6-2.6-2.6-.33 0-.882.03-1.27.2z" fill="#004381" fill-rule="evenodd"/></svg>
