<svg enable-background="new 0 0 30 30" viewBox="0 0 30 30" xmlns="http://www.w3.org/2000/svg"><path d="M5.547 19.248l.7-.7 1.496 1.494L8.29 18l.958.257L8.7 20.3l2.044-.55.256.957-2.043.548 1.495 1.495-.7.702-1.496-1.495L7.71 24l-.958-.257L7.3 21.7l-2.044.548L5 21.29l2.043-.547-1.496-1.495zm7 4l.7-.7 1.496 1.495L15.29 22l.958.257L15.7 24.3l2.044-.55.256.957-2.043.548 1.495 1.495-.7.702-1.496-1.495L14.71 28l-.958-.257.548-2.043-2.044.548L12 25.29l2.043-.547-1.496-1.495zm6-4l.7-.7 1.496 1.495L21.29 18l.958.257L21.7 20.3l2.044-.55.256.957-2.043.548 1.495 1.495-.7.702-1.496-1.495L20.71 24l-.958-.257.548-2.043-2.044.548L18 21.29l2.043-.547-1.496-1.495zM4.55 17c-1.8 0-3.3-1.6-3.3-3.4 0-1.8 1.5-3.3 3.3-3.3h.2c.6-1.9 2.2-3.2 4.2-3.2.1 0 .2 0 .4.1.9-2.6 3.4-4.6 6.3-4.6 3.3 0 6.1 2.4 6.6 5.6.5-.1.9-.2 1.3-.2 2.5 0 4.5 2 4.5 4.5s-2 4.5-4.5 4.5h-19zm17.73-7c-.767.343-.96.367-1.16.267-.2-.1-.215-.267-.4-1.067-.452-2.934-2.27-4.8-4.97-4.8-2.6 0-4.8 2.1-4.8 4.6 0 .4-.1.5-.5.2-.4-.2-.9-.4-1.4-.4-1.4 0-2.6 1.1-2.7 2.8 0 .4.1.8 0 .9-.1.1-.3-.1-.8-.3-.517-.2-.8-.2-1-.2-.8 0-1.5.7-1.5 1.5s.7 1.5 1.5 1.5h19c1.4 0 2.6-1.2 2.6-2.6 0-1.4-1.1-2.6-2.6-2.6-.33 0-.882.027-1.27.2z" fill="#006ED4" fill-rule="evenodd"/></svg>
