<svg enable-background="new 0 0 30 30" viewBox="0 0 30 30" xmlns="http://www.w3.org/2000/svg"><path d="M11.876 21.728l-.016-.006 3.116-2.72-.005 4.028c.02.305-.03.617-.17.913-.446.928-1.56 1.318-2.495.872-.932-.446-1.328-1.56-.883-2.49.113-.236.27-.436.456-.597zM4.55 16.97c-1.8 0-3.3-1.6-3.3-3.4 0-1.8 1.5-3.3 3.3-3.3h.2c.6-1.9 2.2-3.2 4.2-3.2.1 0 .2 0 .4.1.9-2.6 3.4-4.6 6.3-4.6 3.3 0 6.1 2.4 6.6 5.6.5-.1.9-.2 1.3-.2 2.5 0 4.5 2 4.5 4.5s-2 4.5-4.5 4.5h-19zm17.73-7c-.767.343-.96.367-1.16.267-.2-.1-.215-.267-.4-1.067-.452-2.934-2.27-4.8-4.97-4.8-2.6 0-4.8 2.1-4.8 4.6 0 .4-.1.5-.5.2-.4-.2-.9-.4-1.4-.4-1.4 0-2.6 1.1-2.7 2.8 0 .4.1.8 0 .9-.1.1-.3-.1-.8-.3-.517-.2-.8-.2-1-.2-.8 0-1.5.7-1.5 1.5s.7 1.5 1.5 1.5h19c1.4 0 2.6-1.2 2.6-2.6 0-1.4-1.1-2.6-2.6-2.6-.33 0-.882.027-1.27.2z" fill="#004381" fill-rule="evenodd"/></svg>
