<svg enable-background="new 0 0 30 30" viewBox="0 0 30 30" xmlns="http://www.w3.org/2000/svg"><path d="M5.037 20.434l-.014-.007 3.088-2.695-.003 3.994h-.002c.02.302-.03.612-.17.905-.44.92-1.548 1.31-2.472.867-.925-.444-1.316-1.55-.876-2.47.112-.233.268-.432.45-.592h.002zm6.372 2.483l.7-.818 1.494 1.743.548-2.384.957.3-.55 2.382 2.045-.64.256 1.117-2.042.64L16.312 27l-.7.818-1.496-1.744-.548 2.384-.957-.3.55-2.383-2.043.64-.256-1.117 2.044-.64-1.496-1.743zm8.002-2.483l-.015-.007 3.088-2.695-.005 3.994c.017.302-.03.612-.17.905-.44.92-1.55 1.31-2.473.867-.924-.444-1.316-1.55-.876-2.47.114-.233.27-.432.454-.592zM4.58 17c-1.8 0-3.3-1.6-3.3-3.4 0-1.8 1.5-3.3 3.3-3.3h.2c.6-1.9 2.2-3.2 4.2-3.2.1 0 .2 0 .4.1.9-2.6 3.4-4.6 6.3-4.6 3.3 0 6.1 2.4 6.6 5.6.5-.1.9-.2 1.3-.2 2.5 0 4.5 2 4.5 4.5s-2 4.5-4.5 4.5h-19zm17.732-7c-.768.343-.96.367-1.16.267-.2-.1-.215-.267-.4-1.067-.453-2.934-2.27-4.8-4.97-4.8-2.6 0-4.8 2.1-4.8 4.6 0 .4-.1.5-.5.2-.4-.2-.9-.4-1.4-.4-1.4 0-2.6 1.1-2.7 2.8 0 .4.1.8 0 .9-.1.1-.3-.1-.8-.3-.518-.2-.8-.2-1-.2-.8 0-1.5.7-1.5 1.5s.7 1.5 1.5 1.5h19c1.4 0 2.6-1.2 2.6-2.6 0-1.4-1.1-2.6-2.6-2.6-.33 0-.883.027-1.27.2z" fill="#004381" fill-rule="evenodd"/></svg>
