<svg enable-background="new 0 0 30 30" viewBox="0 0 30 30" xmlns="http://www.w3.org/2000/svg"><path d="M7.224 18.782c.14-.09 1.85.45 1.913.603l.855.25c.062.152 0 .35-.14.44L6.78 23.372c-.14.092-.28.037-.344-.117l-.69-4.416c-.063-.155 0-.354.14-.444l1.338.388zm6.38 3.836c.14-.09 1.85.448 1.913.603l.854.22c.065.155 0 .353-.14.443l-3.07 3.326c-.14.09-.28.035-.344-.12l-.69-4.416c-.063-.155 0-.352.14-.443l1.34.39zm6.875-3.75c.14-.09 1.85.448 1.91.603l.855.22c.063.155 0 .353-.14.443l-3.072 3.326c-.14.09-.28.035-.344-.12L19 18.922c-.063-.154 0-.352.14-.442l1.34.39zM4.6 17c-1.8 0-3.3-1.6-3.3-3.4 0-1.8 1.5-3.3 3.3-3.3h.2C5.4 8.4 7 7.1 9 7.1c.1 0 .2 0 .4.1.9-2.6 3.4-4.6 6.3-4.6 3.3 0 6.1 2.4 6.6 5.6.5-.1.9-.2 1.3-.2 2.5 0 4.5 2 4.5 4.5s-2 4.5-4.5 4.5h-19zm17.73-7c-.767.343-.96.367-1.16.267-.2-.1-.215-.267-.4-1.067-.452-2.934-2.27-4.8-4.97-4.8C13.2 4.4 11 6.5 11 9c0 .4-.1.5-.5.2-.4-.2-.9-.4-1.4-.4-1.4 0-2.6 1.1-2.7 2.8 0 .4.1.8 0 .9-.1.1-.3-.1-.8-.3-.517-.2-.8-.2-1-.2-.8 0-1.5.7-1.5 1.5S3.8 15 4.6 15h19c1.4 0 2.6-1.2 2.6-2.6 0-1.4-1.1-2.6-2.6-2.6-.33 0-.882.027-1.27.2z" fill="#006ED4" fill-rule="evenodd"/></svg>
