<svg enable-background="new 0 0 30 30" viewBox="0 0 30 30" xmlns="http://www.w3.org/2000/svg"><path d="M25.743 7.39c.03.106.063.208.08.32-2.786 5.336-.134 7.978-4.39 14.317-4.256 6.34-11.115 6.114-11.115 6.114s1.75-3.124 1.75-6.365c0-3.426-5.095-3.345-7.257-9.172-.373-.458-.643-.97-.77-1.536-.736-3.347 3.496-7.228 9.5-8.67 6.01-1.44 11.477.105 12.215 3.452.112.505.095 1.023-.01 1.542zm-11.898 13.5c.43 2.298-.573 4.744-.573 4.744s3.974-.693 6.792-5.12c2.345-3.68 1.958-5.893 2.653-8.96-1.68 1.278-3.93 2.345-6.503 2.963-2.793.67-5.455.688-7.585.186 1.99 2.94 4.54 2.59 5.214 6.187zm-2.91-7.774c.55-1.037 1.81-1.944 3.498-2.338 1.887-.44 3.738-.118 4.835.714l.215-.106c.163-.37.222-.747.146-1.115-.36-1.72-3.393-2.6-6.78-1.965-3.142.59-5.48 2.278-5.514 3.894.932.49 2.197.802 3.6.917zm1.616.046c1.097-.025 2.22-.16 3.28-.416.59-.142 1.18-.325 1.76-.536-.745-.374-1.81-.49-2.89-.25-.955.214-1.71.666-2.148 1.202zm11.38-6.846c-.522-2.37-5.74-3.17-9.99-2.15-4.254 1.02-8.65 3.986-8.127 6.356.048.214.146.41.266.6.86-1.75 3.345-3.366 6.48-4.01 4.176-.86 7.917.33 8.357 2.657.05.26.042.523.007.79 1.986-1.297 3.31-2.88 3.008-4.245z" fill="#004381" fill-rule="evenodd"/></svg>
