<svg enable-background="new 0 0 24 24" viewBox="0 0 24 24" xmlns="http://www.w3.org/2000/svg"><g fill="#006ED4"><path d="M23.842 13.914c-2.564 0-4.66-1.462-6.037-3.12-1.377 1.658-3.473 3.12-6.037 3.12s-4.66-1.462-6.038-3.12c-1.376 1.658-3.473 3.12-6.037 3.12v-2.462c2.142 0 4.027-1.723 4.946-3.43.43-.8 1.752-.8 2.182 0 .917 1.707 2.803 3.43 4.946 3.43 2.142 0 4.028-1.722 4.945-3.43.43-.8 1.753-.8 2.184 0 .917 1.708 2.802 3.43 4.945 3.43v2.462"/><path d="M23.842 22.073c-2.564 0-4.66-1.463-6.037-3.12-1.377 1.657-3.474 3.12-6.037 3.12-2.564 0-4.66-1.463-6.038-3.122-1.376 1.66-3.473 3.123-6.037 3.123V19.61c2.142 0 4.027-1.722 4.946-3.43.43-.8 1.752-.8 2.182 0 .92 1.708 2.803 3.43 4.946 3.43 2.142 0 4.028-1.72 4.945-3.428.43-.8 1.753-.8 2.184 0 .917 1.707 2.802 3.43 4.945 3.43v2.46"/></g></svg>
