<svg xmlns="http://www.w3.org/2000/svg" viewBox="0 0 24 24"><linearGradient id="a" gradientUnits="userSpaceOnUse" x1="12.001" y1="24" x2="12.001"><stop offset="0" stop-color="#215A94"/><stop offset="1" stop-color="#5783AF"/></linearGradient><path fill="url(#a)" d="M24 21c0 1.657-1.343 3-3 3h-18c-1.657 0-3-1.343-3-3v-18c0-1.657 1.343-3 3-3h18c1.657 0 3 1.343 3 3v18z"/><path fill="#F9A51A" d="M11.636 6.12c1.514 0 2.936.674 3.979 1.729v.003c0-.506.339-.888.806-.888l.12-.001c.734 0 .885.7.885.921l.004 7.874c-.052.515.529.783.851.45 1.255-1.299 2.756-6.678-.78-9.795-3.296-2.906-7.718-2.427-10.069-.793-2.5 1.736-4.099 5.582-2.545 9.191 1.694 3.939 6.541 5.115 9.421 3.941 1.458-.593 2.131 1.394.616 2.043-2.289.982-8.659.882-11.636-4.311-2.01-3.507-1.903-9.679 3.429-12.876 4.08-2.446 9.459-1.769 12.702 1.644 3.392 3.569 3.194 10.25-.114 12.847-1.499 1.181-3.723.033-3.709-1.688l-.014-.562c-1.046 1.043-2.433 1.65-3.946 1.65-2.989 0-5.618-2.648-5.618-5.659 0-3.04 2.628-5.72 5.618-5.72zm3.76 5.503c-.112-2.204-1.735-3.531-3.697-3.531h-.074c-2.264 0-3.519 1.794-3.519 3.832 0 2.281 1.519 3.723 3.509 3.723 2.221 0 3.68-1.64 3.787-3.579l-.006-.445z"/></svg>
