<svg xmlns="http://www.w3.org/2000/svg" viewBox="0 0 24 24"><path d="M24 21c0 1.657-1.343 3-3 3h-18c-1.657 0-3-1.343-3-3v-18c0-1.657 1.343-3 3-3h18c1.657 0 3 1.343 3 3v18z"/><path fill="#fff" d="M11.989 2c-2.916 0-5.28 2.248-5.28 5.02 0 2.773 2.364 5.02 5.28 5.02 2.916 0 5.28-2.247 5.28-5.02.001-2.772-2.364-5.02-5.28-5.02zm0 7.487c-1.433 0-2.595-1.104-2.595-2.468 0-1.362 1.162-2.467 2.595-2.467 1.434 0 2.596 1.105 2.596 2.467 0 1.364-1.162 2.468-2.596 2.468zM11.987 16.68c-2.707 0-5.071-.822-6.485-2.256-.7-.709-.663-1.822.083-2.488.745-.665 1.917-.63 2.616.079.688.695 2.173 1.145 3.787 1.145 1.613 0 3.1-.449 3.786-1.145.699-.708 1.871-.744 2.616-.079.745.666.783 1.779.083 2.488-1.416 1.433-3.78 2.256-6.486 2.256zM16.148 22.025c-.474 0-.947-.172-1.309-.516l-2.826-2.687-2.797 2.682c-.72.69-1.893.694-2.618.011-.726-.685-.731-1.8-.011-2.489l5.415-5.191 5.454 5.186c.723.688.723 1.802 0 2.489-.36.344-.835.515-1.308.515z"/></svg>
