<svg xmlns="http://www.w3.org/2000/svg" viewBox="0 0 24 24"><path d="M24 21c0 1.657-1.343 3-3 3h-18c-1.657 0-3-1.343-3-3v-18c0-1.657 1.343-3 3-3h18c1.657 0 3 1.343 3 3v18z"/><path fill="#fff" d="M15.56 13.198c-.521-.36-1.52-1.23-1.52-1.743 0-.602.178-.898 1.107-1.604.954-.725 1.63-1.586 1.63-2.772 0-1.408-.647-3.079-1.86-3.079h1.829l1.291-2h-5.769c-2.587 0-5.021 2.292-5.021 4.499 0 2.254 1.764 4.268 4.394 4.268l.536.082c-.17.316-.292.723-.292 1.095 0 .628.346 1.159.785 1.575l-1 .023c-3.206-.001-5.67 1.985-5.67 4.042 0 2.024 2.703 3.296 5.906 3.296 3.654 0 5.67-2.015 5.67-4.038 0-1.623-.494-2.597-2.016-3.644zm-3.083-2.808c-1.486-.043-2.899-1.617-3.157-3.513-.256-1.898.74-3.35 2.227-3.308 1.485.044 2.898 1.566 3.155 3.464.258 1.897-.739 3.398-2.225 3.357zm-.582 9.597c-2.215 0-3.815-1.362-3.815-2.998 0-1.605 1.985-2.941 4.199-2.917.517.005.999.087 1.435.223 1.203.814 2.064 1.271 2.308 2.199.047.188.071.38.071.578 0 1.637-1.084 2.915-4.198 2.915z"/></svg>
