<svg xmlns="http://www.w3.org/2000/svg" viewBox="0 0 24 24"><path fill="#2AA9E0" d="M24 21c0 1.657-1.343 3-3 3h-18c-1.657 0-3-1.343-3-3v-18c0-1.657 1.343-3 3-3h18c1.657 0 3 1.343 3 3v18z"/><path fill="#fff" d="M2.749 17.811c1.68 1.078 3.675 1.707 5.818 1.707 6.981 0 10.799-5.785 10.799-10.8l-.012-.491c.744-.536 1.388-1.204 1.896-1.966-.682.302-1.412.506-2.18.598.783-.47 1.386-1.213 1.668-2.1-.731.434-1.544.751-2.408.921-.692-.738-1.679-1.198-2.771-1.198-2.096 0-3.795 1.699-3.795 3.795 0 .298.033.587.098.865-3.154-.159-5.951-1.669-7.822-3.965-.328.56-.515 1.212-.515 1.907 0 1.316.67 2.479 1.688 3.16-.623-.02-1.208-.189-1.72-.476v.047c0 1.839 1.308 3.374 3.044 3.724-.318.086-.654.133-1 .133-.245 0-.483-.025-.714-.068.483 1.508 1.885 2.605 3.545 2.635-1.299 1.02-2.936 1.625-4.713 1.625-.307-.001-.609-.018-.906-.053"/></svg>
