<svg xmlns="http://www.w3.org/2000/svg" viewBox="0 0 960 960"><path d="M120 0c-17 0-32 3-47 9-14 6-27 15-38 26s-20 24-26 38-9 30-9 47v720c0 17 3 32 9 47 6 14 15 27 26 38s24 20 38 26 30 9 47 9h720c17 0 32-3 47-9 14-6 27-15 38-26s20-24 26-38 9-30 9-47v-563l-216 182c20 20 20 41 0 62l-221 221c-20 20-41 20-64 0l-197-195c-50-4-94-27-133-68-32-39-48-86-45-141 5-51 28-95 68-133 35-30 77-46 126-47 56 1 105 24 146 69l10 12 8 12 17-15c20-20 41-20 64 0l66 64 219-300h-688zm733 3l-354 486c-2 5-6 8-11 8s-8-2-11-6c-1-2-7-9-17-23-10-13-23-30-39-53v-4c7-19 11-38 11-58 0-43-15-79-45-110s-67-46-110-46-80 15-110 46-45 67-45 110 15 79 45 109 66 45 109 45c18 0 36-3 54-9h2l146 120c3 1 5 2 8 2h2c3 0 7-1 9-2l463-392v-105c0-17-3-32-9-47-6-14-15-27-26-38s-24-20-38-26c-10-4-22-6-33-7z"/></svg>