<svg enable-background="new 0 0 32 32" viewBox="0 0 32 32" xmlns="http://www.w3.org/2000/svg"><g fill="none" fill-rule="evenodd"><path d="M7.148 5.476l-2.84-2.843-.67.67L6.473 6.14c.21-.24.438-.46.674-.664zm6.75-1.358l.997-3.722L13.98.15l-1.002 3.74c.31.056.616.13.92.228zm3.075 2.064l2.88-2.88-.67-.67-2.873 2.873c.24.21.457.44.663.677zM5.123 8.476L1.246 7.438 1 8.352l3.882 1.04c.06-.308.138-.614.24-.916zm5.277-4.58L9.357 0 8.44.246 9.484 4.14c.3-.102.606-.184.916-.244zm-5.51 8.19L1 13.13l.246.915L5.136 13c-.103-.298-.185-.603-.247-.913zm12.32-1.36c0 3.033-2.46 5.492-5.494 5.492-3.035 0-5.494-2.46-5.494-5.493 0-3.033 2.46-5.493 5.494-5.493s5.493 2.46 5.493 5.493z" opacity=".8" fill="#ED9700"/><path d="M25.5 13.048c-.41 0-.806.06-1.185.163-.466-3.25-3.256-5.75-6.637-5.75-2.938 0-5.43 1.89-6.34 4.52l-.402-.02c-2.1 0-3.86 1.45-4.345 3.4l-.12-.01c-1.83 0-3.32 1.49-3.32 3.33 0 1.827 1.47 3.3 3.29 3.326h-.01 18.94l-.006-.01.137.01c2.48 0 4.48-2.005 4.48-4.477s-2-4.475-4.47-4.475zm-8.945 16.837l.005-4.078-3.218 2.808.016.007c-.192.166-.353.373-.47.616-.458.96-.05 2.11.914 2.57.963.463 2.116.06 2.575-.898.157-.332.213-.685.178-1.025zm8.135-1.867l.005-4.078-3.218 2.81.016.005c-.19.167-.353.374-.47.617-.458.96-.05 2.11.913 2.57.963.462 2.115.06 2.575-.9.16-.33.22-.684.18-1.024zm-16 0l.005-4.078-3.218 2.81.016.005c-.19.167-.353.374-.47.617-.457.96-.05 2.11.914 2.57.963.462 2.116.06 2.576-.9.157-.33.212-.684.177-1.024z" opacity=".7" fill="#7196EA"/></g></svg>
