<svg enable-background="new 0 0 32 32" viewBox="0 0 32 32" xmlns="http://www.w3.org/2000/svg"><g fill="none" fill-rule="evenodd"><path d="M7.148 8.476l-2.84-2.843-.67.67L6.473 9.14c.21-.24.438-.46.674-.664zm6.75-1.358l.997-3.722-.915-.245-1.002 3.74c.31.06.616.13.92.23zm3.075 2.064l2.88-2.88-.67-.67-2.873 2.873c.24.21.457.44.663.677zm-11.85 2.294l-3.877-1.038-.245.914 3.89 1.04c.06-.308.14-.614.24-.916zm5.277-4.58L9.357 3l-.917.246L9.484 7.14c.3-.102.606-.184.916-.244zm-5.51 8.19L1 16.13l.246.915L5.136 16c-.103-.298-.185-.603-.247-.913zm12.32-1.36c0 3.033-2.46 5.492-5.494 5.492-3.035 0-5.494-2.46-5.494-5.493 0-3.033 2.46-5.493 5.494-5.493s5.493 2.46 5.493 5.493z" opacity=".8" fill="#ED9700"/><path d="M25.5 16.05c-.41 0-.806.06-1.185.163-.466-3.25-3.256-5.753-6.637-5.753-2.938 0-5.43 1.892-6.34 4.52l-.402-.02c-2.1 0-3.86 1.447-4.345 3.398l-.12-.013c-1.83 0-3.32 1.49-3.32 3.328 0 1.824 1.47 3.3 3.29 3.323L6.43 25h18.94l-.006-.008.137.008c2.48 0 4.48-2.004 4.48-4.476s-2-4.474-4.48-4.474z" opacity=".7" fill="#7196EA"/></g></svg>
