<svg enable-background="new 0 0 32 32" viewBox="0 0 32 32" xmlns="http://www.w3.org/2000/svg"><g fill="none" fill-rule="evenodd"><path d="M8.85 3c2.005.967 3.387 3.02 3.387 5.394 0 3.308-2.68 5.988-5.987 5.988-1.662 0-3.165-.678-4.25-1.77 1.11 2.06 3.29 3.46 5.795 3.46 3.633 0 6.58-2.945 6.58-6.578 0-3.274-2.393-5.99-5.524-6.494z" opacity=".8" fill="#ED9700"/><path d="M25.5 16.05c-.41 0-.806.06-1.185.163-.466-3.25-3.256-5.753-6.637-5.753-2.938 0-5.43 1.892-6.34 4.52l-.402-.02c-2.1 0-3.86 1.447-4.345 3.398l-.12-.013c-1.83 0-3.32 1.49-3.32 3.328 0 1.824 1.47 3.3 3.29 3.323L6.43 25h18.94l-.006-.008.137.008c2.48 0 4.48-2.004 4.48-4.476s-2-4.474-4.48-4.474z" opacity=".7" fill="#7196EA"/></g></svg>
