<svg enable-background="new 0 0 32 32" viewBox="0 0 32 32" xmlns="http://www.w3.org/2000/svg"><g fill="none" fill-rule="evenodd"><path d="M8.77 0c2.004.967 3.386 3.02 3.386 5.394 0 3.308-2.68 5.988-5.987 5.988-1.67 0-3.17-.678-4.25-1.77 1.11 2.06 3.28 3.46 5.79 3.46 3.63 0 6.58-2.945 6.58-6.578C14.29 3.22 11.9.504 8.77 0z" opacity=".8" fill="#ED9700"/><path d="M25.5 13.048c-.41 0-.806.06-1.185.163-.466-3.25-3.256-5.75-6.637-5.75-2.938 0-5.43 1.89-6.34 4.52l-.402-.02c-2.1 0-3.86 1.45-4.345 3.4l-.12-.01c-1.83 0-3.32 1.49-3.32 3.33 0 1.827 1.47 3.3 3.29 3.326h-.01 18.94l-.006-.01.137.01c2.48 0 4.48-2.005 4.48-4.477s-2-4.475-4.47-4.475zM13.654 29.885l.005-4.078-3.22 2.808.01.007c-.19.166-.357.373-.47.616-.46.96-.05 2.11.91 2.57.962.463 2.116.06 2.575-.898.16-.332.214-.685.18-1.025zm8.136-1.867l.005-4.078-3.218 2.81.016.005c-.19.167-.353.374-.47.617-.458.96-.05 2.11.913 2.57.964.462 2.116.06 2.575-.9.16-.33.22-.684.18-1.024z" opacity=".7" fill="#7196EA"/></g></svg>
