<svg enable-background="new 0 0 32 32" viewBox="0 0 32 32" xmlns="http://www.w3.org/2000/svg"><g fill="none" fill-rule="evenodd"><path d="M7.22 5.802L4.38 2.96l-.67.67 2.837 2.836c.21-.24.438-.46.674-.664zm6.75-1.358l1-3.722-.915-.245-1.002 3.738c.31.057.617.13.92.23zm3.076 2.064l2.88-2.88-.67-.67-2.873 2.873c.24.22.457.44.663.68zM5.196 8.802L1.32 7.764l-.246.914 3.88 1.04c.06-.308.14-.614.242-.916zm5.277-4.58L9.43.326l-.917.246 1.044 3.894c.3-.102.606-.184.916-.244zm-5.51 8.19l-3.89 1.043.246.916 3.89-1.04c-.11-.3-.19-.6-.25-.91zm12.32-1.36c0 3.033-2.46 5.492-5.494 5.492-3.04 0-5.5-2.46-5.5-5.493 0-3.03 2.46-5.49 5.49-5.49 3.03 0 5.49 2.46 5.49 5.5z" opacity=".8" fill="#ED9700"/><path d="M25.5 13.048c-.41 0-.806.06-1.185.163-.466-3.25-3.256-5.75-6.637-5.75-2.938 0-5.43 1.89-6.34 4.52l-.402-.02c-2.1 0-3.86 1.45-4.345 3.4l-.12-.01c-1.83 0-3.32 1.49-3.32 3.33 0 1.827 1.47 3.3 3.29 3.326h-.01 18.94l-.006-.01.137.01c2.48 0 4.48-2.005 4.48-4.477s-2-4.475-4.47-4.475zM19 28.71l-.256-.958-2.044.546.547-2.042L16.29 26l-.547 2.042-1.495-1.496-.702.7 1.496 1.497L13 29.29l.256.957L15.3 29.7l-.548 2.043.956.257.547-2.044 1.497 1.495.7-.69-1.495-1.493L19 28.71zm8-2l-.254-.958-2.044.55.548-2.045-.958-.257-.548 2.043-1.495-1.496-.71.7 1.492 1.497-2.04.548.254.957 2.044-.55-.55 2.04.957.25.55-2.044 1.498 1.495.7-.702-1.495-1.497 2.05-.53zm-16-.002l-.258-.957-2.043.55.54-2.04-.95-.26-.55 2.048-1.498-1.495-.702.7 1.496 1.496L5 27.29l.256.958 2.04-.548-.545 2.043.96.257.55-2.042 1.5 1.495.7-.702-1.492-1.49 2.04-.55z" opacity=".7" fill="#7196EA"/></g></svg>
