<svg enable-background="new 0 0 32 32" viewBox="0 0 32 32" xmlns="http://www.w3.org/2000/svg"><g fill="none" fill-rule="evenodd"><path d="M8.77 0c2.004.967 3.386 3.02 3.386 5.394 0 3.308-2.68 5.988-5.987 5.988-1.67 0-3.17-.678-4.25-1.77 1.11 2.06 3.28 3.46 5.79 3.46 3.63 0 6.58-2.945 6.58-6.578C14.29 3.22 11.9.504 8.77 0z" opacity=".8" fill="#ED9700"/><path d="M25.5 13.048c-.41 0-.806.06-1.185.163-.466-3.25-3.256-5.75-6.637-5.75-2.938 0-5.43 1.89-6.34 4.52l-.402-.02c-2.1 0-3.86 1.45-4.345 3.4l-.12-.01c-1.83 0-3.32 1.49-3.32 3.33 0 1.827 1.47 3.3 3.29 3.326h-.01 18.94l-.006-.01.137.01c2.48 0 4.48-2.005 4.48-4.477s-2-4.475-4.47-4.475zM19 28.71l-.256-.958-2.044.546.547-2.042L16.29 26l-.547 2.042-1.495-1.496-.702.7 1.496 1.497L13 29.29l.256.957L15.3 29.7l-.548 2.043.956.257.547-2.044 1.497 1.495.7-.69-1.495-1.493L19 28.71zm8-2l-.254-.958-2.044.55.548-2.045-.958-.257-.548 2.043-1.495-1.496-.71.7 1.492 1.497-2.04.548.254.957 2.044-.55-.55 2.04.957.25.55-2.044 1.498 1.495.7-.702-1.495-1.497 2.05-.53zm-16-.002l-.258-.957-2.043.55.54-2.04-.95-.26-.55 2.048-1.498-1.495-.702.7 1.496 1.496L5 27.29l.256.958 2.04-.548-.545 2.043.96.257.55-2.042 1.5 1.495.7-.702-1.492-1.49 2.04-.55z" opacity=".7" fill="#7196EA"/></g></svg>
