<svg enable-background="new 0 0 32 32" viewBox="0 0 32 32" xmlns="http://www.w3.org/2000/svg"><g fill="none" fill-rule="evenodd"><path d="M7.22 5.802L4.38 2.96l-.67.67 2.837 2.836c.21-.24.438-.46.674-.664zm6.75-1.358l1-3.722-.915-.245-1.002 3.738c.31.057.617.13.92.23zm3.076 2.064l2.88-2.88-.67-.67-2.873 2.873c.24.22.457.44.663.68zM5.196 8.802L1.32 7.764l-.246.914 3.88 1.04c.06-.308.14-.614.242-.916zm5.277-4.58L9.43.326l-.917.246 1.044 3.894c.3-.102.606-.184.916-.244zm-5.51 8.19l-3.89 1.043.246.916 3.89-1.04c-.11-.3-.19-.6-.25-.91zm12.32-1.36c0 3.033-2.46 5.492-5.494 5.492-3.04 0-5.5-2.46-5.5-5.493 0-3.03 2.46-5.49 5.49-5.49 3.03 0 5.49 2.46 5.49 5.5z" opacity=".8" fill="#ED9700"/><path d="M25.5 13.048c-.41 0-.806.06-1.185.163-.466-3.25-3.256-5.75-6.637-5.75-2.938 0-5.43 1.89-6.34 4.52l-.402-.02c-2.1 0-3.86 1.45-4.345 3.4l-.12-.01c-1.83 0-3.32 1.49-3.32 3.33 0 1.827 1.47 3.3 3.29 3.326h-.01 18.94l-.006-.01.137.01c2.48 0 4.48-2.005 4.48-4.477s-2-4.475-4.47-4.475zM13.654 29.885l.005-4.078-3.22 2.808.01.007c-.19.166-.357.373-.47.616-.46.96-.05 2.11.91 2.57.962.463 2.116.06 2.575-.898.16-.332.214-.685.18-1.025zm8.136-1.867l.005-4.078-3.218 2.81.016.005c-.19.167-.353.374-.47.617-.458.96-.05 2.11.913 2.57.964.462 2.116.06 2.575-.9.16-.33.22-.684.18-1.024z" opacity=".7" fill="#7196EA"/></g></svg>
