<svg enable-background="new 0 0 32 32" viewBox="0 0 32 32" xmlns="http://www.w3.org/2000/svg"><path d="M2.768 21.61l1.703-.457-1.24-1.245.59-.585 1.24 1.247.458-1.707.797.214-.455 1.703 1.7-.456.21.798-1.7.456 1.246 1.248-.584.584-1.247-1.245-.456 1.702-.8-.216.46-1.7-1.704.46-.213-.8zm4.65 4.482l1.6-.43-1.17-1.17.547-.55 1.17 1.173.43-1.6.752.2-.43 1.6 1.6-.43.2.75-1.6.43 1.17 1.17-.547.55-1.17-1.172-.43 1.6-.75-.2.43-1.6-1.6.428-.203-.74zm6.02-.023l1.43-.39-1.048-1.05.49-.49 1.047 1.044.383-1.43.67.18-.383 1.43 1.43-.383.18.67-1.43.384 1.047 1.05-.492.49-1.045-1.046-.384 1.43-.668-.18.383-1.43-1.43.383-.18-.67zm4.036-4.37l1.227-.33-.89-.9.42-.42.9.894.33-1.226.575.152-.327 1.226 1.227-.33.152.572-1.227.33.896.896-.42.42-.9-.897-.33 1.227-.575-.15.33-1.226-1.23.33-.153-.574zm-.542-4.35l1.02-.274-.747-.746.35-.35.748.748.274-1.02.48.13-.274 1.02 1.02-.27.13.48-1.022.27.75.748-.35.35-.74-.746-.27 1.022-.48-.13.273-1.02-1.02.274-.13-.48zm-3.157-2.26l.682-.184-.5-.5.234-.23.5.5.19-.684.32.085-.18.683.68-.184.086.32-.682.184.5.497-.233.233-.5-.5-.184.682-.32-.087.18-.68-.68.182-.085-.32zm17.07-5.78l-.234-.87-2.94.794.79-2.964-.862-.23-.79 2.965-2.16-2.17-.634.637 2.158 2.17-2.946.794.23.873 2.95-.796-.79 2.965.866.236.79-2.964 2.157 2.17.635-.637-2.16-2.17 2.95-.797zm-8.657-3.46l-.217-.814-2.75.74.74-2.77-.81-.216-.74 2.77-2.01-2.03-.59.6 2.017 2.03-2.752.745.218.815 2.756-.74-.74 2.77.81.214.738-2.77 2.015 2.03.595-.598-2.02-2.028 2.753-.744zM13.64 7.98l-.207-.783-2.644.713.7-2.66-.78-.208-.71 2.66-1.93-1.947-.57.57 1.94 1.948-2.647.713.208.782 2.645-.713-.708 2.66.776.21.708-2.66 1.937 1.946.57-.57L11 8.7l2.645-.713zm-5.163 6.342l-.193-.722-2.442.658.655-2.456-.72-.194-.653 2.456-1.787-1.797-.526.528 1.79 1.8-2.44.656.2.73 2.44-.66-.65 2.46.717.197.656-2.456 1.78 1.79.525-.53-1.787-1.796 2.443-.657z" fill="#7196EA" opacity=".7" fill-rule="evenodd"/></svg>
