<svg enable-background="new 0 0 32 32" viewBox="0 0 32 32" xmlns="http://www.w3.org/2000/svg"><g fill="none" fill-rule="evenodd"><path d="M15.793 7.213c-.513 0-1.015.047-1.503.137 3.523.437 6.25 3.44 6.25 7.083 0 3.942-3.195 7.138-7.137 7.138-1.792 0-3.43-.66-4.684-1.75 1.45 2.38 4.07 3.97 7.07 3.97 4.57 0 8.28-3.71 8.28-8.28s-3.71-8.29-8.287-8.29z" opacity=".8" fill="#ED9700"/><path d="M13.5 3.5h15m-20 3h19m-22 3h22m-24 3h25m-26 3h27m-27 3h27m-25 3h24m-23 3h20m-22 3h17" stroke="#7196EA" stroke-linecap="round" opacity=".7"/></g></svg>
