<svg enable-background="new 0 0 32 32" viewBox="0 0 32 32" xmlns="http://www.w3.org/2000/svg"><path d="M25.5 13.048c-.41 0-.806.06-1.185.163-.466-3.25-3.256-5.75-6.637-5.75-2.938 0-5.43 1.89-6.34 4.52l-.402-.02c-2.1 0-3.86 1.45-4.345 3.4l-.12-.01c-1.83 0-3.32 1.49-3.32 3.33 0 1.827 1.47 3.3 3.29 3.326h-.01 18.94l-.006-.01.137.01c2.48 0 4.48-2.005 4.48-4.477s-2-4.475-4.47-4.475zm-9.96 13.364l-1.39-.402c-.145.094-.21.3-.145.46l.716 4.582c.07.16.22.218.36.124l3.19-3.45c.15-.095.21-.3.15-.46l-.884-.228c-.064-.16-1.84-.72-1.984-.626zm7.13-2.89l-1.39-.402c-.145.094-.21.3-.145.46l.717 4.582c.065.16.21.218.357.125l3.18-3.452c.14-.094.21-.3.14-.46l-.885-.227c-.065-.16-1.84-.72-1.985-.626zm-14.263.706l-1.39-.403c-.144.094-.21.3-.144.46l.716 4.582c.06.16.21.217.35.123l3.19-3.42c.14-.093.21-.298.14-.458l-.888-.26c-.067-.16-1.84-.718-1.987-.624z" fill="#7196EA" opacity=".7" fill-rule="evenodd"/></svg>
