<svg enable-background="new 0 0 32 32" viewBox="0 0 32 32" xmlns="http://www.w3.org/2000/svg"><path d="M25.5 13.048c-.41 0-.806.06-1.185.163-.466-3.25-3.256-5.75-6.637-5.75-2.938 0-5.43 1.89-6.34 4.52l-.402-.02c-2.1 0-3.86 1.45-4.345 3.4l-.12-.01c-1.83 0-3.32 1.49-3.32 3.33 0 1.827 1.47 3.3 3.29 3.326h-.01 18.94l-.006-.01.137.01c2.48 0 4.48-2.005 4.48-4.477s-2-4.475-4.47-4.475zm-8.945 14.937l.005-4.078-3.218 2.808.016.007c-.192.166-.353.373-.47.616-.458.96-.05 2.11.914 2.57.963.463 2.116.06 2.575-.898.157-.332.213-.685.178-1.025z" fill="#7196EA" opacity=".7" fill-rule="evenodd"/></svg>
