<svg enable-background="new 0 0 32 32" viewBox="0 0 32 32" xmlns="http://www.w3.org/2000/svg"><path d="M25.5 13.048c-.41 0-.806.06-1.185.163-.466-3.25-3.256-5.75-6.637-5.75-2.938 0-5.43 1.89-6.34 4.52l-.402-.02c-2.1 0-3.86 1.45-4.345 3.4l-.12-.01c-1.83 0-3.32 1.49-3.32 3.33 0 1.827 1.47 3.3 3.29 3.326h-.01 18.94l-.006-.01.137.01c2.48 0 4.48-2.005 4.48-4.477s-2-4.475-4.47-4.475zM18 27.71l-.255-.958-2.044.55.55-2.045-.96-.257-.54 2.043-1.49-1.496-.703.7 1.497 1.497-2.042.548.258.957 2.043-.55-.547 2.04.955.25.55-2.042 1.495 1.495.7-.704-1.495-1.496L18 27.71z" fill="#7196EA" opacity=".7" fill-rule="evenodd"/></svg>
