<svg enable-background="new 0 0 32 32" viewBox="0 0 32 32" xmlns="http://www.w3.org/2000/svg"><g fill="none" fill-rule="evenodd"><path d="M22.137 7.885c-.792-.282-1.597-.437-2.396-.488 4.06 1.61 6.15 6.153 4.67 10.297-1.51 4.235-6.17 6.442-10.4 4.93-.516-.184-1-.416-1.452-.687.96 1.104 2.2 1.987 3.677 2.514 4.574 1.64 9.606-.75 11.24-5.32 1.63-4.57-.753-9.6-5.326-11.24z" opacity=".8" fill="#ED9700"/><path d="M9.082 27.836l-1.233-.988-1.24.977.51-1.536-1.27-.94 1.55.04.45-1.56.444 1.56 1.55-.028-1.275.925.5 1.54zM7.007 14.7l-1.94-1.483-1.952 1.465.81-2.304-1.998-1.405 2.442.06.71-2.333.7 2.34L8.22 11l-2.01 1.383.79 2.312zM28.71 6.1l-1.23-.986-1.24.977.512-1.53-1.267-.93 1.55.04.456-1.558.45 1.56 1.55-.023-1.27.92.5 1.54z" opacity=".7" fill="#7196EA"/></g></svg>
